<?xml version="1.0" encoding="UTF-8"?>
<svg version="1.1" xmlns="http://www.w3.org/2000/svg" width="314" height="95" viewBox="0 0 314 95">
<path d="M0 0 C103.62 0 207.24 0 314 0 C314 31.35 314 62.7 314 95 C210.38 95 106.76 95 0 95 C0 63.65 0 32.3 0 0 Z " fill="#262422" transform="translate(0,0)"/>
<path d="M0 0 C103.62 0 207.24 0 314 0 C314 31.35 314 62.7 314 95 C210.38 95 106.76 95 0 95 C0 63.65 0 32.3 0 0 Z M8 8 C8 34.07 8 60.14 8 87 C106.34 87 204.68 87 306 87 C306 60.93 306 34.86 306 8 C207.66 8 109.32 8 8 8 Z " fill="#FDDC54" transform="translate(0,0)"/>
<path d="M0 0 C7.92 0 15.84 0 24 0 C24 2.64 24 5.28 24 8 C26.64 8 29.28 8 32 8 C32 21.53 32 35.06 32 49 C29.36 49 26.72 49 24 49 C24 51.64 24 54.28 24 57 C16.08 57 8.16 57 0 57 C0 54.36 0 51.72 0 49 C-2.64 49 -5.28 49 -8 49 C-8 35.47 -8 21.94 -8 8 C-5.36 8 -2.72 8 0 8 C0 5.36 0 2.72 0 0 Z " fill="#262522" transform="translate(212,19)"/>
<path d="M0 0 C2.64 0 5.28 0 8 0 C8 18.81 8 37.62 8 57 C-2.89 57 -13.78 57 -25 57 C-25 54.36 -25 51.72 -25 49 C-27.64 49 -30.28 49 -33 49 C-33 40.75 -33 32.5 -33 24 C-30.36 24 -27.72 24 -25 24 C-25 21.36 -25 18.72 -25 16 C-19.39 16 -13.78 16 -8 16 C-8 18.64 -8 21.28 -8 24 C-5.36 24 -2.72 24 0 24 C0 16.08 0 8.16 0 0 Z " fill="#FCDD54" transform="translate(155,19)"/>
<path d="M0 0 C2.64 0 5.28 0 8 0 C8 18.81 8 37.62 8 57 C-2.56 57 -13.12 57 -24 57 C-24 54.36 -24 51.72 -24 49 C-26.64 49 -29.28 49 -32 49 C-32 40.75 -32 32.5 -32 24 C-29.36 24 -26.72 24 -24 24 C-24 21.36 -24 18.72 -24 16 C-18.72 16 -13.44 16 -8 16 C-8 18.64 -8 21.28 -8 24 C-5.36 24 -2.72 24 0 24 C0 16.08 0 8.16 0 0 Z " fill="#F8D953" transform="translate(106,19)"/>
<path d="M0 0 C98.34 0 196.68 0 298 0 C298 26.07 298 52.14 298 79 C199.66 79 101.32 79 0 79 C0 52.93 0 26.86 0 0 Z M2 2 C2 26.75 2 51.5 2 77 C99.02 77 196.04 77 296 77 C296 52.25 296 27.5 296 2 C198.98 2 101.96 2 2 2 Z " fill="#2F2C25" transform="translate(8,8)"/>
<path d="M0 0 C8.25 0 16.5 0 25 0 C25 2.64 25 5.28 25 8 C27.64 8 30.28 8 33 8 C33 24.17 33 40.34 33 57 C30.36 57 27.72 57 25 57 C25 46.11 25 35.22 25 24 C17.08 24 9.16 24 1 24 C1 34.89 1 45.78 1 57 C-1.97 57 -4.94 57 -8 57 C-8 40.83 -8 24.66 -8 8 C-5.36 8 -2.72 8 0 8 C0 5.36 0 2.72 0 0 Z " fill="#F9D953" transform="translate(33,19)"/>
<path d="M0 0 C10.89 0 21.78 0 33 0 C33 2.64 33 5.28 33 8 C25.08 8 17.16 8 9 8 C9 18.89 9 29.78 9 41 C6.03 41 3.06 41 0 41 C0 27.47 0 13.94 0 0 Z " fill="#F7D251" transform="translate(252,35)"/>
<path d="M0 0 C5.28 0 10.56 0 16 0 C16 2.64 16 5.28 16 8 C18.64 8 21.28 8 24 8 C24 13.28 24 18.56 24 24 C16.08 24 8.16 24 0 24 C0 16.08 0 8.16 0 0 Z " fill="#242322" transform="translate(82,44)"/>
<path d="M0 0 C5.28 0 10.56 0 16 0 C16 2.64 16 5.28 16 8 C18.31 8 20.62 8 23 8 C23 12.95 23 17.9 23 23 C15.41 23 7.82 23 0 23 C0 15.41 0 7.82 0 0 Z " fill="#202021" transform="translate(131,44)"/>
<path d="M0 0 C5.61 0 11.22 0 17 0 C17 2.64 17 5.28 17 8 C19.64 8 22.28 8 25 8 C25 8.33 25 8.66 25 9 C17.08 9 9.16 9 1 9 C1 16.59 1 24.18 1 32 C8.59 32 16.18 32 24 32 C24 27.05 24 22.1 24 17 C24.33 17 24.66 17 25 17 C25 22.28 25 27.56 25 33 C17.08 33 9.16 33 1 33 C1 35.64 1 38.28 1 41 C0.67 41 0.34 41 0 41 C0 38.36 0 35.72 0 33 C-2.64 33 -5.28 33 -8 33 C-8 24.75 -8 16.5 -8 8 C-5.36 8 -2.72 8 0 8 C0 5.36 0 2.72 0 0 Z " fill="#95823B" transform="translate(130,35)"/>
<path d="M0 0 C2.64 0 5.28 0 8 0 C8 13.53 8 27.06 8 41 C5.36 41 2.72 41 0 41 C0 27.47 0 13.94 0 0 Z " fill="#FED952" transform="translate(236,27)"/>
<path d="M0 0 C2.64 0 5.28 0 8 0 C8 13.53 8 27.06 8 41 C5.36 41 2.72 41 0 41 C0 27.47 0 13.94 0 0 Z " fill="#FED953" transform="translate(204,27)"/>
<path d="M0 0 C2.64 0 5.28 0 8 0 C8 10.56 8 21.12 8 32 C5.36 32 2.72 32 0 32 C0 21.44 0 10.88 0 0 Z " fill="#FEDE54" transform="translate(285,44)"/>
<path d="M0 0 C8.25 0 16.5 0 25 0 C25 2.97 25 5.94 25 9 C16.75 9 8.5 9 0 9 C0 6.03 0 3.06 0 0 Z " fill="#E7CD4F" transform="translate(171,43)"/>
<path d="M0 0 C10.89 0 21.78 0 33 0 C33 2.64 33 5.28 33 8 C25.08 8 17.16 8 9 8 C9 7.67 9 7.34 9 7 C16.26 7 23.52 7 31 7 C31 5.35 31 3.7 31 2 C21.43 2 11.86 2 2 2 C2 14.21 2 26.42 2 39 C3.65 39 5.3 39 7 39 C7 29.1 7 19.2 7 9 C7.33 9 7.66 9 8 9 C8 19.56 8 30.12 8 41 C5.36 41 2.72 41 0 41 C0 27.47 0 13.94 0 0 Z " fill="#E7D752" transform="translate(252,35)"/>
<path d="M0 0 C7.92 0 15.84 0 24 0 C24 2.64 24 5.28 24 8 C16.08 8 8.16 8 0 8 C0 5.36 0 2.72 0 0 Z " fill="#FCDE55" transform="translate(212,68)"/>
<path d="M0 0 C7.92 0 15.84 0 24 0 C24 2.64 24 5.28 24 8 C16.08 8 8.16 8 0 8 C0 5.36 0 2.72 0 0 Z " fill="#FDDF54" transform="translate(212,19)"/>
<path d="M0 0 C7.92 0 15.84 0 24 0 C24 2.64 24 5.28 24 8 C16.08 8 8.16 8 0 8 C0 5.36 0 2.72 0 0 Z " fill="#FCDE54" transform="translate(34,19)"/>
<path d="M0 0 C2.31 0 4.62 0 7 0 C7 7.92 7 15.84 7 24 C4.69 24 2.38 24 0 24 C0 16.08 0 8.16 0 0 Z " fill="#FDE155" transform="translate(123,44)"/>
<path d="M0 0 C7.59 0 15.18 0 23 0 C23 2.31 23 4.62 23 7 C15.41 7 7.82 7 0 7 C0 4.69 0 2.38 0 0 Z " fill="#1B1A20" transform="translate(34,28)"/>
<path d="M0 0 C2.64 0 5.28 0 8 0 C8 13.53 8 27.06 8 41 C5.36 41 2.72 41 0 41 C0 27.47 0 13.94 0 0 Z M2 2 C2 14.21 2 26.42 2 39 C3.65 39 5.3 39 7 39 C7 26.79 7 14.58 7 2 C5.35 2 3.7 2 2 2 Z " fill="#F2DD54" transform="translate(236,27)"/>
<path d="M0 0 C2.64 0 5.28 0 8 0 C8 13.53 8 27.06 8 41 C5.36 41 2.72 41 0 41 C0 27.47 0 13.94 0 0 Z M1 2 C1 14.21 1 26.42 1 39 C2.65 39 4.3 39 6 39 C6 26.79 6 14.58 6 2 C4.35 2 2.7 2 1 2 Z " fill="#F1DE54" transform="translate(204,27)"/>
<path d="M0 0 C5.28 0 10.56 0 16 0 C16 2.31 16 4.62 16 7 C10.72 7 5.44 7 0 7 C0 4.69 0 2.38 0 0 Z " fill="#FDE155" transform="translate(131,36)"/>
<path d="M0 0 C0.33 0 0.66 0 1 0 C1 2.64 1 5.28 1 8 C8.92 8 16.84 8 25 8 C25 10.64 25 13.28 25 16 C24.67 16 24.34 16 24 16 C24 13.69 24 11.38 24 9 C16.41 9 8.82 9 1 9 C1 11.31 1 13.62 1 16 C0.67 16 0.34 16 0 16 C0 13.69 0 11.38 0 9 C-2.31 9 -4.62 9 -7 9 C-7 24.84 -7 40.68 -7 57 C-7.33 57 -7.66 57 -8 57 C-8 40.83 -8 24.66 -8 8 C-5.36 8 -2.72 8 0 8 C0 5.36 0 2.72 0 0 Z " fill="#A6903F" transform="translate(33,19)"/>
<path d="M0 0 C0.33 0 0.66 0 1 0 C1.33 15.51 1.66 31.02 2 47 C-0.64 47 -3.28 47 -6 47 C-6 36.44 -6 25.88 -6 15 C-5.67 15 -5.34 15 -5 15 C-5 24.9 -5 34.8 -5 45 C-3.35 45 -1.7 45 0 45 C0 30.15 0 15.3 0 0 Z " fill="#FDE556" transform="translate(64,29)"/>
<path d="M0 0 C2.64 0 5.28 0 8 0 C8 7.92 8 15.84 8 24 C5.36 24 2.72 24 0 24 C0 16.08 0 8.16 0 0 Z M1 1 C1 7.93 1 14.86 1 22 C2.65 22 4.3 22 6 22 C6 15.07 6 8.14 6 1 C4.35 1 2.7 1 1 1 Z " fill="#F4E155" transform="translate(74,44)"/>
</svg>
