<svg width="65" height="65" viewBox="0 0 65 65" fill="none" xmlns="http://www.w3.org/2000/svg">
<g clip-path="url(#clip0_4217_9)">
<path d="M35.5317 3.23779L57.7603 15.6616L58.4614 16.0532L57.8003 16.5093L46.5923 24.2378L46.3384 24.4126L46.0679 24.2651L35.2866 18.3716L24.7378 24.1226L24.7378 39.2476L35.2876 45.104L46.0649 39.106L46.3364 38.9556L46.5913 39.1313L57.7993 46.8394L58.4624 47.2944L57.7603 47.687L35.5317 60.1108L35.2876 60.2476L35.0444 60.1108L12.8159 47.687L12.5601 47.5444L12.5601 40.0425L-29.9839 40.0425L-29.9839 23.3267L12.5601 23.3267L12.5601 15.8042L12.8159 15.6616L35.0444 3.23779L35.2876 3.10107L35.5317 3.23779Z" fill="white"/>
<path d="M35.5317 3.23779L35.2874 3.67405L35.2878 3.67425L35.5317 3.23779ZM57.7603 15.6616L57.5163 16.0981L57.5165 16.0982L57.7603 15.6616ZM58.4614 16.0532L58.7453 16.4648L59.4068 16.0085L58.7052 15.6167L58.4614 16.0532ZM57.8003 16.5093L58.0841 16.9209L58.0842 16.9209L57.8003 16.5093ZM46.5923 24.2378L46.8758 24.6496L46.8761 24.6494L46.5923 24.2378ZM46.3384 24.4126L46.0991 24.8516L46.3688 24.9987L46.6219 24.8244L46.3384 24.4126ZM46.0679 24.2651L45.828 24.7039L45.8286 24.7041L46.0679 24.2651ZM35.2866 18.3716L35.5265 17.9329L35.2869 17.8019L35.0473 17.9326L35.2866 18.3716ZM24.7378 24.1226L24.4985 23.6836L24.2378 23.8257L24.2378 24.1226L24.7378 24.1226ZM24.7378 39.2476L24.2378 39.2476L24.2378 39.5419L24.4951 39.6847L24.7378 39.2476ZM35.2876 45.104L35.0449 45.5412L35.2879 45.6761L35.5307 45.5409L35.2876 45.104ZM46.0649 39.106L45.8227 38.6686L45.8218 38.6691L46.0649 39.106ZM46.3364 38.9556L46.6203 38.544L46.3652 38.368L46.0941 38.5182L46.3364 38.9556ZM46.5913 39.1313L46.3074 39.543L46.308 39.5433L46.5913 39.1313ZM57.7993 46.8394L57.516 47.2513L57.5164 47.2516L57.7993 46.8394ZM58.4624 47.2944L58.7064 47.7309L59.4093 47.3379L58.7453 46.8822L58.4624 47.2944ZM57.7603 47.687L58.0042 48.1235L58.0043 48.1234L57.7603 47.687ZM35.5317 60.1108L35.2878 59.6744L35.2874 59.6746L35.5317 60.1108ZM35.2876 60.2476L35.0426 60.6834L35.2871 60.8209L35.5319 60.6838L35.2876 60.2476ZM35.0444 60.1108L35.2895 59.675L35.2884 59.6744L35.0444 60.1108ZM12.8159 47.687L13.0599 47.2506L13.0593 47.2502L12.8159 47.687ZM12.5601 47.5444L12.0601 47.5444L12.0601 47.8382L12.3167 47.9812L12.5601 47.5444ZM12.5601 40.0425L13.0601 40.0425L13.0601 39.5425L12.5601 39.5425L12.5601 40.0425ZM-29.9839 40.0425L-30.4839 40.0425L-30.4839 40.5425L-29.9839 40.5425L-29.9839 40.0425ZM-29.9839 23.3267L-29.9839 22.8267L-30.4839 22.8267L-30.4839 23.3267L-29.9839 23.3267ZM12.5601 23.3267L12.5601 23.8267L13.0601 23.8267L13.0601 23.3267L12.5601 23.3267ZM12.5601 15.8042L12.3167 15.3674L12.0601 15.5104L12.0601 15.8042L12.5601 15.8042ZM12.8159 15.6616L13.0593 16.0984L13.0599 16.0981L12.8159 15.6616ZM35.0444 3.23779L35.2884 3.67425L35.2895 3.67363L35.0444 3.23779ZM35.2876 3.10107L35.5319 2.66482L35.2871 2.52774L35.0426 2.66524L35.2876 3.10107ZM35.5317 3.23779L35.2878 3.67425L57.5163 16.0981L57.7603 15.6616L58.0042 15.2252L35.7757 2.80134L35.5317 3.23779ZM57.7603 15.6616L57.5165 16.0982L58.2176 16.4898L58.4614 16.0532L58.7052 15.6167L58.0041 15.2251L57.7603 15.6616ZM58.4614 16.0532L58.1775 15.6416L57.5164 16.0977L57.8003 16.5093L58.0842 16.9209L58.7453 16.4648L58.4614 16.0532ZM57.8003 16.5093L57.5165 16.0977L46.3084 23.8262L46.5923 24.2378L46.8761 24.6494L58.0841 16.9209L57.8003 16.5093ZM46.5923 24.2378L46.3088 23.826L46.0548 24.0008L46.3384 24.4126L46.6219 24.8244L46.8758 24.6496L46.5923 24.2378ZM46.3384 24.4126L46.5777 23.9736L46.3072 23.8261L46.0679 24.2651L45.8286 24.7041L46.0991 24.8516L46.3384 24.4126ZM46.0679 24.2651L46.3077 23.8264L35.5265 17.9329L35.2866 18.3716L35.0468 18.8103L45.828 24.7039L46.0679 24.2651ZM35.2866 18.3716L35.0473 17.9326L24.4985 23.6836L24.7378 24.1226L24.9771 24.5616L35.526 18.8106L35.2866 18.3716ZM24.7378 24.1226L24.2378 24.1226L24.2378 39.2476L24.7378 39.2476L25.2378 39.2476L25.2378 24.1226L24.7378 24.1226ZM24.7378 39.2476L24.4951 39.6847L35.0449 45.5412L35.2876 45.104L35.5303 44.6668L24.9805 38.8104L24.7378 39.2476ZM35.2876 45.104L35.5307 45.5409L46.3081 39.5429L46.0649 39.106L45.8218 38.6691L35.0444 44.6671L35.2876 45.104ZM46.0649 39.106L46.3072 39.5433L46.5787 39.3929L46.3364 38.9556L46.0941 38.5182L45.8227 38.6686L46.0649 39.106ZM46.3364 38.9556L46.0526 39.3672L46.3074 39.543L46.5913 39.1313L46.8752 38.7197L46.6203 38.544L46.3364 38.9556ZM46.5913 39.1313L46.308 39.5433L57.516 47.2513L57.7993 46.8394L58.0826 46.4274L46.8746 38.7194L46.5913 39.1313ZM57.7993 46.8394L57.5164 47.2516L58.1795 47.7067L58.4624 47.2944L58.7453 46.8822L58.0822 46.4271L57.7993 46.8394ZM58.4624 47.2944L58.2184 46.858L57.5162 47.2506L57.7603 47.687L58.0043 48.1234L58.7064 47.7309L58.4624 47.2944ZM57.7603 47.687L57.5163 47.2506L35.2878 59.6744L35.5317 60.1108L35.7757 60.5473L58.0042 48.1235L57.7603 47.687ZM35.5317 60.1108L35.2874 59.6746L35.0433 59.8113L35.2876 60.2476L35.5319 60.6838L35.776 60.5471L35.5317 60.1108ZM35.2876 60.2476L35.5326 59.8117L35.2895 59.675L35.0444 60.1108L34.7994 60.5467L35.0426 60.6834L35.2876 60.2476ZM35.0444 60.1108L35.2884 59.6744L13.0599 47.2506L12.8159 47.687L12.572 48.1235L34.8005 60.5473L35.0444 60.1108ZM12.8159 47.687L13.0593 47.2502L12.8034 47.1077L12.5601 47.5444L12.3167 47.9812L12.5725 48.1238L12.8159 47.687ZM12.5601 47.5444L13.0601 47.5444L13.0601 40.0425L12.5601 40.0425L12.0601 40.0425L12.0601 47.5444L12.5601 47.5444ZM12.5601 40.0425L12.5601 39.5425L-29.9839 39.5425L-29.9839 40.0425L-29.9839 40.5425L12.5601 40.5425L12.5601 40.0425ZM-29.9839 40.0425L-29.4839 40.0425L-29.4839 23.3267L-29.9839 23.3267L-30.4839 23.3267L-30.4839 40.0425L-29.9839 40.0425ZM-29.9839 23.3267L-29.9839 23.8267L12.5601 23.8267L12.5601 23.3267L12.5601 22.8267L-29.9839 22.8267L-29.9839 23.3267ZM12.5601 23.3267L13.0601 23.3267L13.0601 15.8042L12.5601 15.8042L12.0601 15.8042L12.0601 23.3267L12.5601 23.3267ZM12.5601 15.8042L12.8034 16.241L13.0593 16.0984L12.8159 15.6616L12.5725 15.2249L12.3167 15.3674L12.5601 15.8042ZM12.8159 15.6616L13.0599 16.0981L35.2884 3.67425L35.0444 3.23779L34.8005 2.80134L12.572 15.2252L12.8159 15.6616ZM35.0444 3.23779L35.2895 3.67363L35.5326 3.53691L35.2876 3.10107L35.0426 2.66524L34.7994 2.80196L35.0444 3.23779ZM35.2876 3.10107L35.0433 3.53733L35.2874 3.67405L35.5317 3.23779L35.776 2.80154L35.5319 2.66482L35.2876 3.10107Z" fill="black"/>
</g>
<defs>
<clipPath id="clip0_4217_9">
<rect width="64" height="64" fill="white" transform="translate(0 0.323608) rotate(-0.289665)"/>
</clipPath>
</defs>
</svg>
