<svg width="276" height="276" viewBox="0 0 276 276" fill="none" xmlns="http://www.w3.org/2000/svg">
  <path
    d="M246 10H30C18.9543 10 10 18.9543 10 30V246C10 257.046 18.9543 266 30 266H246C257.046 266 266 257.046 266 246V30C266 18.9543 257.046 10 246 10Z"
    fill="#3178C6" />
  <path fill-rule="evenodd" clip-rule="evenodd"
    d="M163.518 212.475V240.095C168.01 242.397 173.323 244.123 179.456 245.274C185.589 246.425 192.053 247 198.849 247C205.471 247 211.763 246.367 217.723 245.101C223.683 243.835 228.91 241.749 233.401 238.844C237.893 235.938 241.449 232.14 244.07 227.45C246.69 222.761 248 216.964 248 210.059C248 205.053 247.251 200.665 245.754 196.896C244.257 193.127 242.097 189.775 239.275 186.841C236.454 183.906 233.07 181.274 229.126 178.943C225.181 176.613 220.732 174.412 215.779 172.341C212.151 170.844 208.898 169.392 206.018 167.982C203.139 166.572 200.691 165.134 198.676 163.666C196.66 162.199 195.105 160.645 194.011 159.005C192.917 157.365 192.37 155.51 192.37 153.438C192.37 151.539 192.859 149.828 193.838 148.303C194.817 146.778 196.2 145.469 197.985 144.376C199.77 143.282 201.958 142.434 204.55 141.829C207.141 141.225 210.021 140.923 213.188 140.923C215.492 140.923 217.925 141.096 220.487 141.441C223.05 141.786 225.627 142.318 228.219 143.038C230.81 143.757 233.329 144.663 235.777 145.757C238.224 146.85 240.485 148.116 242.558 149.554V123.747C238.354 122.136 233.761 120.942 228.78 120.165C223.799 119.388 218.083 119 211.633 119C205.068 119 198.849 119.705 192.975 121.115C187.101 122.524 181.932 124.725 177.469 127.717C173.006 130.71 169.479 134.522 166.887 139.154C164.296 143.786 163 149.324 163 155.769C163 163.997 165.375 171.017 170.127 176.829C174.878 182.64 182.09 187.56 191.765 191.588C195.566 193.142 199.108 194.666 202.39 196.163C205.673 197.659 208.509 199.212 210.899 200.823C213.289 202.434 215.175 204.189 216.557 206.088C217.939 207.987 218.63 210.145 218.63 212.562C218.63 214.345 218.198 216 217.334 217.525C216.471 219.049 215.16 220.373 213.404 221.495C211.648 222.617 209.459 223.494 206.839 224.127C204.219 224.76 201.152 225.077 197.639 225.077C191.65 225.077 185.719 224.027 179.845 221.926C173.97 219.826 168.528 216.676 163.518 212.475ZM117.482 143.742H153V121H54V143.742H89.3447V245H117.482V143.742Z"
    fill="white" />
</svg>